<?xml version="1.0" encoding="utf-8"?>
<!-- Generator: Adobe Illustrator 16.0.0, SVG Export Plug-In . SVG Version: 6.00 Build 0)  -->
<!DOCTYPE svg PUBLIC "-//W3C//DTD SVG 1.1//EN" "http://www.w3.org/Graphics/SVG/1.1/DTD/svg11.dtd">
<svg version="1.1" xmlns="http://www.w3.org/2000/svg" xmlns:xlink="http://www.w3.org/1999/xlink" x="0px" y="0px" width="260px"
	 height="45px" viewBox="0 0 260 45" enable-background="new 0 0 260 45" xml:space="preserve">
<g id="Layer_1">
	
		<text transform="matrix(1 0 0 1 34.7305 31.8203)" fill="#FFFFFF" stroke="#FFFFFF" stroke-width="2.4" stroke-miterlimit="10" font-family="'MyriadPro-Regular'" font-size="26">UCM Health Services</text>
</g>
<g id="Layer_2">
	<g>
		<path fill="#FFFFFF" d="M28.655,4.294c-0.119,0.021-0.215,0.115-0.236,0.234c-0.262,1.355-1.979,3.434-4.839,3.587
			c-2.115,0.113-3.313,0.852-4.275,1.444c-0.328,0.203-0.637,0.394-0.942,0.534c-0.99,0.451-2.497,0.131-2.992,0.024l-0.172-0.033
			c-0.879-0.123-1.713,0.224-2.103,0.418c-0.669-0.812-1.832-1.704-3.32-2.541L9.717,7.929C8.179,6.998,8.054,5.301,8.054,4.776
			c0-0.088,0.003-0.143,0.004-0.155c0.001-0.008,0.001-0.015,0.001-0.022c0-0.11-0.063-0.213-0.165-0.262
			C7.788,4.284,7.659,4.302,7.57,4.382C7.535,4.413,6.963,4.949,6.963,6.154c0,0.549,0.119,1.236,0.46,2.078
			c0.012,0.029,0.018,0.06,0.018,0.092c0,0.121-0.081,0.283-0.252,0.599c-0.401,0.735-1.066,1.963-1.086,4.627
			c-1.075,1.117-1.603,2.439-2.026,3.507c-0.268,0.675-0.499,1.258-0.782,1.542c-0.61,0.61-1.743,1.742-2.34,3.368
			c-0.27,0.735-0.585,2.042-0.585,3.307c0,1.107,0.33,1.698,0.621,2.22c0,0,0.012,0.022,0.017,0.03
			c0.039,0.083,0.223,0.432,0.583,0.614c0.511,1.798,1.686,3.629,3.503,5.445c0.093,0.093,0.237,0.112,0.351,0.048
			c0.053-0.031,0.089-0.075,0.114-0.128c0.875,1.212,2.062,2.549,3.464,3.334l1.583,0.887c0.116,0.065,0.262,0.043,0.354-0.053
			c0.017-0.018,0.026-0.037,0.038-0.06c0.958,0.711,2.127,1.409,3.301,1.694l1.08,0.263c0.114,0.027,0.235-0.016,0.304-0.111
			c0.039-0.052,0.058-0.112,0.058-0.174c0-0.051-0.013-0.103-0.041-0.149l-0.563-0.957c-0.008-0.015-0.014-0.029-0.022-0.043
			c0.102-0.036,0.18-0.124,0.194-0.235l0.214-1.638c0.188-1.43,0.445-1.896,0.545-2.029c0.081,0.041,0.231,0.143,0.447,0.356
			c0.434,0.435,0.524,1.053,0.525,1.498v0.031c0,0.336-0.041,0.529-0.251,0.591c-0.103,0.029-0.181,0.112-0.204,0.217
			c-0.005,0.021-0.007,0.043-0.007,0.063c0,0.083,0.036,0.163,0.1,0.22c0.651,0.574,1.196,0.89,1.65,1.077
			c-0.027,0.045-0.045,0.097-0.045,0.151c0,0.014,0.001,0.026,0.003,0.04c0.018,0.133,0.123,0.235,0.255,0.25l1.767,0.211
			c0.011,0.001,0.021,0.001,0.031,0.001c0.857,0.012,1.201-0.018,1.628-0.112c0.24,0.119,0.558,0.068,0.669,0.044
			c0.011-0.002,0.023-0.005,0.034-0.01c1.319-0.466,1.75-1.242,1.878-1.812c0.034-0.147,0.051-0.303,0.051-0.461
			c0-0.106-0.015-0.208-0.029-0.311c0.068-0.163,0.112-0.336,0.112-0.523c0-0.213-0.052-0.442-0.142-0.687
			c0.167-0.425,0.237-0.801,0.237-1.123c0-0.966-0.569-1.467-0.603-1.495l-0.264-0.227c-0.009-0.008-0.02-0.011-0.03-0.017
			c0.034-0.075,0.067-0.143,0.1-0.208c0.13-0.264,0.277-0.562,0.277-0.983l-0.02-0.273c0.001,0.008,0.005,0.039,0.005,0.047
			c0-0.216,0.397-1.406,0.634-1.643c0.047-0.048,0.136-0.12,0.275-0.219c0.035,0.097,0.078,0.19,0.139,0.275
			c-0.015-0.021-0.025-0.039-0.034-0.062c0.064,0.172,0.184,0.494,0.184,0.746c0,0.052-0.004,0.096-0.014,0.132l-0.038,0.139
			c-0.029,0.104,0.003,0.216,0.082,0.29c0,0,0.107,0.1,0.108,0.1c0.177,0.163,0.446,0.19,0.759,0.076
			c0.242-0.088,0.617-0.312,0.895-0.861c0,0,1.223-0.004,1.408-0.004c0.184,0,0.312-0.082,0.312-0.296v-0.429
			c1.188,0.612,3,1.772,3.691,2.234l1.014,0.673c0.125,0.084,0.295,0.059,0.391-0.06c0.043-0.054,0.064-0.119,0.064-0.184
			c0-0.077-0.029-0.153-0.088-0.21l-0.875-0.849c-0.018-0.02-1.916-1.843-4.396-2.952c0.01-0.057,0.016-0.12,0.023-0.182
			c0.037-0.036,0.074-0.072,0.109-0.11c0.031,0,0.059,0.002,0.061,0.002c0.891,0.024,4.488,1.197,5.162,1.429l0.859,0.29
			c0.139,0.048,0.291-0.017,0.355-0.15c0.021-0.04,0.029-0.084,0.029-0.126c0-0.098-0.047-0.191-0.133-0.247l-0.762-0.491
			c-0.018-0.012-1.787-1.136-4.965-1.771c0.035-0.146,0.055-0.295,0.055-0.445c0-0.136-0.014-0.271-0.043-0.407
			c1.078-0.026,3.66,0.273,5.166,0.478l1.062,0.145c0.148,0.021,0.289-0.075,0.324-0.22c0.035-0.146-0.045-0.295-0.186-0.345
			c0,0-1.008-0.363-1.01-0.363c-0.023-0.01-2.443-0.858-5.482-0.826c-0.012-0.085-0.023-0.159-0.023-0.159
			c-0.021-0.097-0.055-0.229-0.1-0.376c1.854-0.596,4.781-0.982,6.414-1.163c0.143-0.016,0.254-0.136,0.26-0.28
			c0-0.004,0-0.007,0-0.011c0-0.141-0.1-0.263-0.238-0.288c-2.076-0.387-5.344,0.175-7.045,0.646
			c-0.137-0.136-0.281-0.247-0.443-0.311c-0.248-0.095-0.406-0.284-0.502-0.428c0.041-0.19,0.066-0.371,0.066-0.538
			c0-0.441-0.135-0.741-0.223-0.94c0,0-0.027-0.062-0.035-0.084c-0.012-0.382-0.145-1.095-0.229-1.519
			c0-0.029,0.004-0.279,0.004-0.279c0-0.606-0.088-1.47-0.842-1.96c-0.301-0.196-0.991-0.845-1.49-1.34
			c-0.001-0.003-0.006-0.007-0.009-0.01c-0.003-0.002-0.049-0.07-0.049-0.246c0-0.299,0.133-0.901,0.833-2.004
			c0.96-1.51,1.154-2.466,1.294-3.165c0.07-0.35,0.127-0.626,0.26-0.882C28.59,7.123,29.165,6,29.165,5.192
			c0-0.287-0.072-0.534-0.207-0.76C28.895,4.328,28.774,4.273,28.655,4.294 M27.508,20.441l0.002,0.011
			c0,0.002-0.002,0.001-0.002,0.012C27.508,20.457,27.508,20.449,27.508,20.441 M29.127,24.347c-0.002,0-0.004,0-0.006,0
			C29.124,24.347,29.125,24.347,29.127,24.347 M24.559,36.182c0.003,0.02,0.006,0.038,0.006,0.058h0
			C24.561,36.22,24.562,36.2,24.559,36.182"/>
		<path d="M29.114,26.552c0.1-0.23,0.141-0.457,0.141-0.669c0-0.254-0.061-0.481-0.141-0.669l0.021-0.003
			c1.035-0.168,5.527,0.444,5.574,0.451l1.062,0.146l-1.01-0.363c-0.025-0.008-2.516-0.891-5.633-0.806
			c-0.012-0.123-0.033-0.252-0.062-0.393c-0.031-0.151-0.09-0.383-0.186-0.623c1.873-0.665,5.1-1.086,6.754-1.27
			c-2.031-0.379-5.352,0.184-7.076,0.684c-0.127-0.159-0.277-0.291-0.463-0.361c-0.385-0.147-0.607-0.47-0.705-0.645
			c0.057-0.229,0.082-0.425,0.082-0.596c0-0.38-0.113-0.632-0.197-0.82c-0.025-0.055-0.057-0.129-0.059-0.152
			c0-0.375-0.174-1.266-0.23-1.542c0-0.043,0-0.1,0-0.1c0.002-0.063,0.004-0.134,0.004-0.208c0-0.525-0.066-1.297-0.709-1.716
			c-0.359-0.233-1.146-0.989-1.536-1.378c0,0-0.633-0.469,0.735-2.622c1.426-2.245,1.098-3.19,1.547-4.035
			c1.811-2.604,2.084-3.602,1.678-4.281c-0.279,1.45-2.045,3.662-5.111,3.826c-2.765,0.146-3.882,1.388-5.11,1.95
			c-1.229,0.562-3.105,0.048-3.327,0.016c-1.084-0.151-2.135,0.502-2.135,0.502c-1.025-1.393-3.327-2.619-3.456-2.698
			C7.586,6.982,7.766,4.599,7.766,4.599S6.667,5.591,7.694,8.122c0.311,0.766-1.301,1.361-1.301,5.544
			c-1.823,1.822-2.077,4.323-2.892,5.14c-0.609,0.608-1.699,1.7-2.271,3.262c-0.301,0.818-0.567,2.097-0.567,3.206
			c0,1.055,0.318,1.602,0.604,2.113c0,0,0.188,0.416,0.563,0.532c0.56,2.113,2.009,3.995,3.47,5.457c0,0-0.104-0.404-0.104-0.92
			c0.897,1.398,2.281,3.181,3.971,4.127l1.582,0.885l0,0h0.001c0,0-0.261-0.421-0.517-0.837c1.111,0.949,2.629,2.023,4.135,2.391
			l1.081,0.263v-0.001l0,0l-0.564-0.958c-0.383-0.651-0.511-1.242-0.511-1.74c0-0.049,0.002-0.096,0.005-0.144
			c0.069,0.154,0.641,1.42,0.641,1.42l0,0l0,0l0.214-1.638c0.226-1.724,0.559-2.159,0.693-2.269
			c0.028-0.022,0.048-0.031,0.056-0.034c0.097-0.032,0.347,0.069,0.739,0.461c0.508,0.508,0.611,1.213,0.611,1.702c0,0,0,0,0,0.002
			c0,0.245,0.016,0.763-0.461,0.902c1.003,0.883,1.736,1.119,2.211,1.234c-0.216,0.091-0.507,0.214-0.507,0.214l1.767,0.21
			c0.941,0.014,1.235-0.026,1.682-0.133c0.128,0.164,0.548,0.071,0.548,0.071c1.193-0.423,1.578-1.104,1.69-1.602
			c0.03-0.132,0.043-0.268,0.043-0.396c0-0.124-0.012-0.241-0.033-0.348c0.084-0.158,0.116-0.325,0.116-0.486
			c0-0.265-0.084-0.516-0.158-0.694c0.674-1.573-0.207-2.354-0.246-2.389l-0.264-0.225l-0.112,0.328
			c-0.001,0.004-0.099,0.284-0.299,0.6c-0.005-0.032-0.008-0.064-0.008-0.101c0-0.06,0.006-0.125,0.02-0.2
			c0.106-0.615,0.267-0.941,0.396-1.203c0.122-0.248,0.248-0.503,0.248-0.855c0-0.073-0.005-0.149-0.017-0.23l0.001,0.013
			c0-0.003,0-0.007,0-0.009c0-0.282,0.417-1.546,0.719-1.849c0.158-0.157,0.44-0.348,0.71-0.512
			c-0.003,0.026-0.006,0.052-0.007,0.077c0,0.012-0.001,0.025-0.001,0.037c0,0.18,0.058,0.35,0.159,0.489
			c0,0.001,0.001,0.005,0.001,0.005c0.071,0.189,0.203,0.543,0.203,0.85c0,0.073-0.007,0.144-0.025,0.209l-0.037,0.138l0.105,0.1
			c0.125,0.113,0.342,0.06,0.459,0.016c0.295-0.106,0.795-0.442,0.992-1.491c0.443-0.074,0.729-0.276,0.91-0.488l0.072,0.021
			c1.115,0.325,4.561,2.61,4.596,2.635l1.014,0.672l-0.873-0.847c-0.02-0.02-1.992-1.918-4.531-2.993l-0.002-0.002
			c0.035-0.122,0.076-0.302,0.084-0.485c0.104-0.09,0.193-0.18,0.273-0.271l0.041,0.001l0.143,0.004
			c1.049,0.029,5.207,1.43,5.248,1.444l0.857,0.291l-0.76-0.491C34.278,28.332,32.424,27.157,29.114,26.552"/>
		<path fill="#FFFFFF" d="M26.711,28.873c-0.039-0.011-0.197-0.058-0.398-0.147c-0.143-0.064-0.308-0.155-0.466-0.272
			c-0.015,0.077-0.027,0.242,0.1,0.357c0,0,0.292,0.76,0.192,1.115c0,0,0.381-0.018,0.598-1.045L26.711,28.873z"/>
		<path fill="#FFFFFF" d="M22.114,29.353c-0.007,0.001-0.022,0.001-0.042,0.001H22.07c-0.134,0.001-0.526-0.011-0.889-0.149
			c0,0-0.081,0.245,0.089,0.4c0,0,0.258,0.667,0.208,1.043c-0.003,0.024-0.008,0.049-0.014,0.071c0,0,0.456-0.022,0.656-1.366
			C22.12,29.353,22.118,29.353,22.114,29.353"/>
		<path fill="#FFFFFF" d="M20.05,34.695c0,0,0.039-0.31,0.291-0.389c0,0,0.681-0.679,0.753-1.119c0,0,0.461,0.264,0,1.839
			c0,0-0.24-0.137-0.57-0.236C20.524,34.79,20.34,34.727,20.05,34.695"/>
		<path fill="#B7B9BC" d="M20.05,34.695c0,0,0.039-0.31,0.291-0.389c0,0,0.681-0.679,0.753-1.119c0,0-0.002,0.781-0.416,1.195
			c-0.014,0.013-0.144,0.176-0.148,0.41c-0.003-0.002-0.005-0.002-0.007-0.003C20.524,34.79,20.364,34.733,20.05,34.695"/>
		<path fill="#FFFFFF" d="M22.034,35.125c0.306,0.025,0.187-0.1,0.341-0.07c0.155,0.031,0.496,0.336,0.681,0.151
			c0.185-0.187,0.153-0.464,0.07-0.427c-0.083,0.039-0.178,0.3-0.625,0.011c-0.185-0.119-0.255-0.08-0.32-0.016
			c-0.065,0.065-0.201-0.039-0.201-0.039s0.049,0.004-0.23-0.041c-0.281-0.045-0.331,0.446-0.331,0.446
			c0,0.076,0.136,0.069,0.371,0.136C22.024,35.341,21.729,35.101,22.034,35.125"/>
		<path fill="#FFFFFF" d="M23.414,34.571L23.414,34.571c0.234,0.271,0.271,0.54,0.271,0.54c0.672-1.363,0.176-1.924,0.176-1.924
			c-0.072,0.44-0.753,1.119-0.753,1.119S23.291,34.423,23.414,34.571"/>
		<path fill="#B7B9BC" d="M23.414,34.571L23.414,34.571c0.056-0.097,0.135-0.176,0.135-0.176c0.387-0.505,0.312-1.208,0.312-1.208
			c-0.072,0.44-0.753,1.119-0.753,1.119S23.31,34.446,23.414,34.571"/>
		<path fill="#B7B9BC" d="M26.213,28.728c0.033,0,0.066-0.001,0.1-0.002c-0.143-0.064-0.308-0.155-0.466-0.272
			c-0.015,0.077-0.027,0.242,0.1,0.357c0,0,0.292,0.76,0.192,1.115C26.452,29.186,26.213,28.728,26.213,28.728"/>
		<path fill="#B7B9BC" d="M21.538,29.521c0.223,0,0.444-0.041,0.566-0.068c0.005-0.033,0.011-0.066,0.016-0.101c0,0-0.002,0-0.006,0
			c-0.007,0.001-0.022,0.001-0.042,0.001H22.07c-0.134,0.001-0.526-0.011-0.889-0.149c0,0-0.081,0.245,0.089,0.4
			c0,0,0.258,0.667,0.208,1.043c-0.003,0.024-0.008,0.049-0.014,0.071C21.775,29.978,21.538,29.521,21.538,29.521"/>
		<path fill="#346094" d="M28.334,28.063l-0.064,0.11c1.064,0.312,3.844,2.18,3.844,2.18S29.389,28.406,28.334,28.063"/>
		<path fill="#346094" d="M28.993,26.754l-0.035,0.123c1.107,0.031,4.271,1.127,4.271,1.127S30.098,26.817,28.993,26.754"/>
		<path fill="#346094" d="M29.11,24.862l-0.012,0.128c1.094-0.178,4.408,0.31,4.408,0.31S30.208,24.717,29.11,24.862"/>
		<path fill="#346094" d="M28.776,23.28l0.025,0.124c1.701-0.658,5.174-1.03,5.174-1.03S31.165,22.43,28.776,23.28"/>
		<path fill="#FFFFFF" d="M25.918,27.891c0,0,0,0,0-0.002c0.361-0.548,0.197-1.297,0.197-1.297c0.289-0.226,0.363-0.418,0.363-0.418
			l0,0c0,0,0.715-0.247,1.184-1.24c0.307-0.652-0.027-0.846-0.062-0.865c0.105-0.403,0.273-0.68,0.467-0.867
			c0.199,0.168,0.363,0.508,0.469,0.864c0,0,0.174,1.098-0.607,1.385c0,0,0.545,0.108,0.662-0.23c0,0,0.363,0.531,0.08,1.175
			c-0.014,0.019-0.473,0.717-1.213,0.717c0,0,0.205,0.217,0.564,0.118c0.018,0.277-0.016,1.189-1.189,1.189
			C26.833,28.419,26.204,28.23,25.918,27.891"/>
		<path fill="#FFFFFF" d="M25.918,27.891c0,0,0,0,0-0.002c0.361-0.548,0.197-1.297,0.197-1.297c0.289-0.226,0.363-0.418,0.363-0.418
			l0,0c0,0,0.715-0.247,1.184-1.24c0.307-0.652-0.027-0.846-0.062-0.865c0.105-0.403,0.273-0.68,0.467-0.867
			c0.199,0.168,0.363,0.508,0.469,0.864c0,0,0.174,1.098-0.607,1.385c0,0,0.545,0.108,0.662-0.23c0,0,0.363,0.531,0.08,1.175
			c-0.014,0.019-0.473,0.717-1.213,0.717c0,0,0.205,0.217,0.564,0.118c0.018,0.277-0.016,1.189-1.189,1.189
			C26.833,28.419,26.204,28.23,25.918,27.891"/>
		<path fill="#B7B9BC" d="M27.54,25.164c-0.002,0.019-0.074,1.01-0.871,1.465c0,0,0.02,0.899-0.23,1.147
			c0,0,0.029,0.407,0.396,0.642h-0.002c0,0-0.633-0.188-0.915-0.527c0,0,0.342-0.46,0.198-1.299c0,0,0.248-0.178,0.363-0.418
			C26.479,26.174,27.075,25.957,27.54,25.164"/>
		<path fill="#346094" d="M24.388,24.95c0,0,0.05-0.512,0.624-0.512c0.573,0,1.055,0.35,1.749,0.028s0.637,0.101,0.637,0.101
			s-0.436,0.864-0.908,1.086c0,0,0.014-0.336-0.172-0.522c0,0,0.082,0.231-0.17,0.652c-0.252,0.423-0.055,0.498-0.296,0.559
			l-0.241-0.332c0,0-0.125-0.123,0-0.477c0.163-0.465-0.508-0.402-0.548-0.402s-0.048-0.043-0.231,0.14
			C24.725,25.377,24.453,25.016,24.388,24.95"/>
		<path fill="#002453" d="M26.172,25.331c-0.322,0.086-0.805-0.443-1.071-0.591c-0.333-0.184-0.59,0.014-0.629,0.304
			c0.109,0.126,0.28,0.307,0.358,0.227c0.184-0.183,0.191-0.14,0.231-0.14s0.706-0.063,0.548,0.402c-0.125,0.365,0,0.477,0,0.477
			l0.17,0.236C25.699,25.904,26.139,25.654,26.172,25.331"/>
		<path fill="#889CBE" d="M26.225,24.887c0,0-0.121,0.189-0.424,0.048c-0.167-0.078-0.464-0.468-0.896-0.412
			c0.443-0.002,0.689,0.588,1.116,0.604C26.125,25.131,26.288,25.1,26.225,24.887"/>
		<path fill="#889CBE" d="M26.364,24.89c0.039,0.145,0.18,0.161,0.271,0.153c0.252-0.021,0.375-0.392,0.619-0.559
			C26.858,24.523,26.833,25.146,26.364,24.89"/>
		<path fill="#9E760D" d="M22.151,30.62c-0.04-0.063-0.083-0.125-0.128-0.188c-0.018,0.03-0.037,0.057-0.055,0.084
			C22.034,30.552,22.096,30.587,22.151,30.62"/>
		<path fill="#CD9700" d="M22.999,33.5c-0.162-0.367-0.448-0.437-0.448-1.622c0-0.49-0.204-1.008-0.528-1.445l0,0
			c-0.018,0.03-0.037,0.057-0.055,0.084c-0.326,0.464-0.718,0.451-0.712,0.432c0.063-0.233,0.026-0.507-0.035-0.747
			c-0.05-0.196-0.118-0.369-0.16-0.483c-0.042-0.05-0.071-0.104-0.093-0.16c-0.066-0.029-0.132-0.057-0.199-0.079
			c-1.813-0.605-2.669-0.025-3.226,0.771c0,0,1.056-0.109,1.372,1.137c0.245,0.965,0.04,2.154,1.618,2.423
			c0.375-0.445,0.464-0.979,0.464-0.979s0.488,0.251,0.521,1.085C22.859,34.015,23.135,33.812,22.999,33.5"/>
		<path fill="#F5D9A8" d="M22.999,33.5c-0.162-0.367-0.448-0.437-0.448-1.622c0-0.42-0.149-0.861-0.396-1.253l-0.003-0.005
			c-0.056-0.033-0.118-0.068-0.184-0.104l0,0c-0.053,0.075-0.108,0.138-0.163,0.188c0.158,0.39,0.282,0.828,0.32,1.289
			c-0.058,0.508-1.779,0.116-1.708,0.387c0.117,0.444,1.633-0.126,1.757,0.203c0,0,0.001,0.001,0.001,0.004
			c0.078,0.317,0.257,0.493,0.257,0.735c0,0.129-0.39,0.246-0.967,0.22c0.026,0.109,0.046,0.231,0.052,0.372l0,0
			C22.859,34.015,23.135,33.812,22.999,33.5 M20.57,33.761c0.081-0.102,0.147-0.208,0.202-0.31c-0.229-0.05-0.469-0.12-0.715-0.219
			C20.184,33.421,20.358,33.597,20.57,33.761"/>
		<path fill="#9E760D" d="M19.845,32.672c-0.212-1.988-0.653-2.544-0.653-2.544c0.455-0.104,0.876-0.118,1.256-0.082
			c0.172,0.259,0.361,0.679,0.423,1.32c0,0,0.183-0.647-0.034-1.262c0.135,0.027,0.262,0.061,0.384,0.097
			c-0.05-0.196-0.118-0.369-0.16-0.483c-0.042-0.05-0.072-0.104-0.093-0.161c-0.066-0.028-0.133-0.056-0.2-0.078
			c-1.813-0.605-2.67-0.025-3.225,0.771c0,0,1.055-0.109,1.372,1.137c0.245,0.965,0.042,2.154,1.618,2.422
			c0.014-0.016,0.024-0.031,0.037-0.047C20.16,33.444,19.889,33.082,19.845,32.672"/>
		<path fill="#CD9700" d="M7.536,15.865c-0.362,1.008-0.219,1.758-0.219,1.758C7.611,16.524,8.2,15.719,8.2,15.719
			c-0.55-1.354-0.687-3.021-0.687-3.021C7.317,9.93,9.201,9.183,9.201,9.183c-0.168-0.267-0.415-0.375-0.64-0.414
			c-0.02,0.003-0.04,0.006-0.056,0.012c-0.431,0.155-1.541,1.157-1.403,5.142C7.239,14.817,7.536,15.865,7.536,15.865"/>
		<path fill="#9E760D" d="M10.249,13.29c-0.55,0.748-0.295,1.637-0.295,1.637c0.654-0.989,2.353-1.188,2.353-1.188
			C11.449,9.93,9.27,9.636,9.27,9.636c-1.322,0.678-1.343,2.622-1.343,2.622c0.333-1.661,1.315-2.215,1.315-2.215
			c1.284,0.123,1.906,2.353,1.906,2.353c-0.21-0.108-0.685,0.005-0.685,0.005c0.542,0.377,0.495,1.385,0.495,1.385
			C10.816,13.555,10.249,13.29,10.249,13.29"/>
		<path fill="#9E760D" d="M23.811,12.403c0,0,0.462,0.315,0.912,0.284c0-0.001,0-0.004,0-0.004l-0.33-0.214
			c1.082-0.418,1.02-1.164,1.02-1.164l-0.73-0.161l0.779-0.355c0.855-0.591,0.854-1.952,0.854-1.952
			c-0.426,0.533-2.509,1.448-3.135,1.929c-0.627,0.479-0.844,1.694-0.844,1.694c-0.17-0.057-0.217-0.426-0.217-0.426
			c-0.266,0.688-0.033,1.335-0.033,1.335c0.034,0.08,0.075,0.148,0.123,0.208c0.001-0.115,0.027-0.312,0.152-0.552l0.707,0.356
			c0,0-0.458-1.422,0.716-2.302c1.175-0.879,1.173-0.438,1.634-1.103c0,0,0.073,0.647-0.603,1.043c0,0-0.477,0.291-0.594,0.632
			c0,0,0.654-0.201,0.908-0.192C25.129,11.46,24.385,12.28,23.811,12.403"/>
		<path fill="#F0CE8D" d="M16.808,11.467c0,0-1.651-1.505-3.33-0.042l0.692,0.396C14.17,11.82,14.915,10.938,16.808,11.467"/>
		<path fill="#F0CE8D" d="M20.918,10.313c0.822-0.822,2.318-1.457,2.318-1.457c-2.341,0.126-3.633,1.41-3.633,1.41
			S20.098,11.136,20.918,10.313"/>
		<path fill="#FFFFFF" d="M10.948,29.661c0.109-1.039,0.445-2.073,1.104-3.052c-0.411,0.07-0.793,0.144-1.142,0.221
			c-0.181,0.749-0.289,1.708-0.013,2.601L10.948,29.661z"/>
		<path fill="#FFFFFF" d="M26.415,19.962c0,0-0.059-0.029-0.148-0.058c0.078,0.769-0.377,1.176-0.377,1.176
			c0.209-0.61,0.018-1.092-0.042-1.222c-0.192,0.032-0.372,0.163-0.421,0.515c-0.115,0.846,0.373,0.951,0.373,0.951
			S26.657,21.188,26.415,19.962"/>
		<path fill="#002453" d="M26.452,20.109c-0.002-0.005-0.002-0.012-0.004-0.017c0-0.003,0-0.004-0.002-0.007
			c-0.008-0.04-0.018-0.082-0.031-0.124c0,0-0.059-0.032-0.15-0.064c0.082,0.772-0.375,1.183-0.375,1.183
			c0.217-0.637,0.001-1.134-0.049-1.235c-0.104,0.017-0.208,0.058-0.295,0.146c-0.03,0.108-0.047,0.23-0.047,0.358
			c0,0.46,0.218,0.832,0.487,0.832c0.083,0,0.176-0.048,0.245-0.108c0.094-0.105,0.158-0.235,0.205-0.403
			c0.023-0.097,0.037-0.207,0.037-0.32C26.471,20.266,26.463,20.186,26.452,20.109"/>
		<path fill="#889CBE" d="M25.937,20.909c-0.118-0.097-0.202-0.344-0.202-0.631c0-0.152,0.024-0.29,0.062-0.404
			c-0.018,0.004-0.036,0.007-0.053,0.012c-0.063,0.119-0.103,0.282-0.103,0.463c0,0.312,0.117,0.574,0.274,0.644
			C25.923,20.964,25.93,20.937,25.937,20.909"/>
		<path fill="#889CBE" d="M26.05,20.956c-0.016,0-0.032-0.003-0.047-0.009c-0.016,0.023-0.032,0.041-0.045,0.058
			c0.013,0.003,0.026,0.006,0.041,0.006c0.148,0,0.275-0.169,0.328-0.407C26.274,20.813,26.17,20.956,26.05,20.956"/>
		<path fill="#B2BED4" d="M25.792,20.193c-0.001,0.052,0.023,0.095,0.057,0.095c0.032,0.001,0.061-0.039,0.062-0.091
			c0.002-0.052-0.024-0.095-0.057-0.096C25.821,20.102,25.793,20.142,25.792,20.193"/>
		<path fill="#B2BED4" d="M25.739,20.408c-0.001,0.052,0.024,0.094,0.057,0.096c0.033,0,0.061-0.04,0.062-0.092
			s-0.024-0.095-0.057-0.096C25.769,20.316,25.741,20.357,25.739,20.408"/>
		<path fill="#FFFFFF" d="M25.745,26.742c0,0-0.344-0.498-0.463-0.582c-0.226-0.159-0.159-0.419-0.298-0.439
			c-0.141-0.021-0.65-0.245-0.889-0.483c-0.041-0.042-0.07-0.087-0.091-0.134h0c0,0-0.741-1.111-2.383-1.646
			c-0.169-0.042-0.349-0.084-0.542-0.122c-1.002-0.202-2.383,0.297-2.524,0.352l0.036,0.076c0,0-1.38,0.508-1.066,2.365
			c0.23,1.361,1.513,1.745,1.513,1.745s-0.634-0.12-1.208-0.549l-0.063,0.016l-0.129,0.035c-2.744,0.768-4.98,2.028-6.151,2.771
			c0.065,1.438,0.535,3.699,2.426,6.208l0,0c0.073-1.018,0.587-1.654,0.587-1.654c0,0.864,0.269,1.459,0.269,1.459
			c0.278-2.118,0.762-2.817,1.378-2.704c-0.116-0.443-0.493-1.539-1.442-1.877c-0.95-0.331-1.55,0.431-1.55,0.431
			c0.461-1.19,1.537-0.807,1.537-0.807c-0.23-0.461-0.557-0.595-0.557-0.595c2.287,0.46,3.471,4.301,3.471,4.301l0,0
			c0.342,0.903,0.142,1.828,0.142,1.828c0.164-0.164,0.672,0.058,0.672,0.058c-0.346,0.346-0.634,0.308-0.634,0.308
			c1.46,1.115,3.17,0.711,3.17,0.711c-0.23,0.229-0.557,0.365-0.557,0.365c1.46,0.172,2.248-0.48,2.248-0.48
			c0,0.229-0.23,0.442-0.23,0.442c1.396-0.494,1.468-1.334,1.408-1.748c-0.285-0.032-0.86-0.01-1.972,0.295
			c0,0,0.992-0.54,1.91-0.54c0.106-0.105,0.15-0.23,0.158-0.358c-0.375-0.062-1.235-0.139-2.447,0.129
			c-1.62,0.358-2.161,0.649-2.752-0.201c-0.612-0.879-1.543-3.2-1.86-4.19l0,0c-0.194-0.564-0.832-1.495-0.832-1.495
			c0.276,0.126,0.556,0.416,0.792,0.716c0.22-0.755,1.025-2.346,3.176-2.31c1.427,0.022,2.127,1.36,4.918-0.275l0,0
			c0.075-0.048,0.151-0.095,0.225-0.14C26.013,27.396,25.745,26.742,25.745,26.742 M16.659,30.046c0,0-0.101-2.551,1.757-1.884
			C18.416,28.162,17.02,28.302,16.659,30.046 M21.75,26.787l0.168,0.316c0,0-0.995-0.419-1.739-0.239c0,0,0.228,0.062,0.39,0.172
			c-0.535,0.049-0.998,0.135-1.57,0.532c0.266-0.411,0.756-0.62,0.756-0.62l-0.367-0.107c0.989-0.522,2.005-0.217,2.005-0.217
			s-0.144-0.15-0.374-0.239c0.56-0.082,1.74,0.113,2.407,1.135C23.428,27.52,22.771,26.899,21.75,26.787 M22.453,25.837l0.229,0.321
			c-1.109-0.527-1.888-0.568-2.621-0.515c0.144,0.058,0.265,0.136,0.36,0.213c-0.687-0.035-1.235,0.145-1.78,0.505
			c0.424-0.5,0.921-0.66,0.921-0.66l-0.303-0.086c1.34-0.689,2.803,0,2.803,0l-0.17-0.233c1.061,0.123,1.82,1.107,1.82,1.107
			C23.243,26.149,22.453,25.837,22.453,25.837 M22.791,24.89l0.21,0.326c-1.701-0.879-2.827-0.634-2.827-0.634
			c0.17,0.04,0.337,0.202,0.337,0.202c-1.072-0.121-2.209,0.323-2.209,0.323c0.704-0.888,2.315-0.816,2.315-0.816l-0.161-0.162
			c1.297,0.027,1.983,0.559,1.983,0.559l-0.278-0.307c1.24,0.23,1.755,1.437,1.755,1.437C23.3,25.16,22.791,24.89,22.791,24.89"/>
		<path fill="#FFFFFF" d="M14.053,38.438c-0.438-0.579-1.296-1.804-2.007-3.353v0.001c-1.128-2.261-1.566-5.047-1.566-5.047
			c-0.204,1.247-0.225,2.241-0.225,2.241c-0.587-2.357-0.164-4.205,0.321-5.373c-1.49,0.356-2.312,0.732-2.329,0.74L7.499,28
			c-0.234,4.729,1.679,6.983,2.168,7.48c0.036,0.034,0.072,0.069,0.111,0.105l0.001,0.002l0,0
			C10.759,36.514,12.403,37.888,14.053,38.438"/>
		<path fill="#FFFFFF" d="M10.975,22.71c-0.625,0.336-1.25,0.811-1.857,1.462c0,0,0.077-0.731,1.037-1.69
			c0,0-3.476,1.204-3.843,5.726c0,0-1.46-2.691,0-5.612c0,0-3.04,2.201-1.821,7.685c0.002-0.006,0.003-0.012,0.005-0.018
			c0,0,2.018,4.294,4.9,5.908c-1.289-1.704-1.872-3.42-2.095-4.904c-0.206,0.984,0.337,2.542,0.337,2.542
			c-1.034-1.209-2.147-3.546-2.147-4.857c0.461,1.455,1.34,2.306,1.34,2.306c0.09-1.838,0.505-3.948,0.764-4.408
			c-0.046,0.399-0.077,0.783-0.096,1.151l0.628-0.538c0.084-0.072,2.13-1.754,8.799-1.735c-0.006-0.07-0.01-0.141-0.01-0.215
			c0-0.14,0.01-0.271,0.028-0.395c-3.963-1.141-8.729-0.396-8.777-0.389l-0.775,0.125l0.709-0.337
			c0.107-0.051,2.695-1.229,8.983,0.061c0.072-0.182,0.164-0.34,0.262-0.479c-3.058-1.127-5.164-1.471-5.895-1.563
			C11.186,22.617,11.02,22.689,10.975,22.71"/>
		<path fill="#FFFFFF" d="M11.583,28.577c-0.027,0.121-0.098,0.512-0.105,1.103c1.049-0.795,2.945-1.955,5.883-2.812
			c-0.128-0.167-0.237-0.358-0.316-0.579c-1.795-0.056-3.357,0.071-4.646,0.267C12.087,27.109,11.778,27.795,11.583,28.577"/>
		<path fill="#B7B9BC" d="M6.312,28.206c0,0-1.46-2.69,0-5.611c0,0-3.04,2.201-1.821,7.683c0.002-0.004,0.003-0.01,0.005-0.016h0
			c0,0,0,0,0-0.001c0,0,2.017,4.294,4.899,5.908c-5.896-4.955-4.841-9.74-4.841-9.74c0.164,1.322,0.788,1.812,0.788,1.812
			c-1.115-2.747,0.223-4.398,0.223-4.398S4.808,26.25,6.312,28.206"/>
		<path fill="#B7B9BC" d="M17.773,23.653c0.028-0.021,0.056-0.042,0.083-0.063c-2.172-1.527-4.299-1.496-5.603-1.253
			C13.374,22.446,15.308,22.761,17.773,23.653"/>
		<path fill="#B7B9BC" d="M7.393,24.853l0.219-0.103c0.366-0.455,0.86-0.952,1.506-1.384c0,0-0.295,0.354-0.464,0.959
			c0.219-0.059,0.505-0.126,0.865-0.185c0.869-0.78,1.99-1.3,3.263-1.379c-0.612-0.125-1.061-0.194-1.328-0.228
			c-0.314,0.099-0.491,0.181-0.491,0.181l0.008-0.009c-0.623,0.339-1.246,0.814-1.853,1.465c0,0,0.077-0.73,1.037-1.689
			c0,0-2.539,0.827-3.43,3.708c0,0,0.239-0.615,0.824-1.361L7.393,24.853z"/>
		<path fill="#B7B9BC" d="M8.578,24.674c-0.03,0.185-0.045,0.388-0.037,0.604c0.15-0.231,0.319-0.45,0.502-0.656
			C8.862,24.64,8.706,24.656,8.578,24.674"/>
		<path fill="#B7B9BC" d="M16.926,25.726c-0.006-0.07-0.01-0.141-0.01-0.215c0-0.14,0.011-0.271,0.028-0.395
			c-0.194-0.057-0.391-0.108-0.589-0.154c-0.004,0.241,0.02,0.503,0.079,0.765C16.595,25.726,16.759,25.725,16.926,25.726"/>
		<path fill="#B7B9BC" d="M17.765,27.341l-0.129,0.035c-0.014,0.004-0.027,0.008-0.04,0.012c0.364,0.229,0.825,0.406,1.404,0.496
			c-0.06-0.02-0.118-0.042-0.176-0.065c-0.234-0.07-0.626-0.219-0.995-0.494L17.765,27.341z"/>
		<path fill="#B7B9BC" d="M17.36,26.867c-0.128-0.166-0.239-0.355-0.317-0.578c-0.143-0.004-0.284-0.008-0.423-0.011
			c0.108,0.238,0.256,0.467,0.451,0.675C17.166,26.925,17.263,26.896,17.36,26.867"/>
		<path fill="#B7B9BC" d="M17.087,24.576c0.072-0.181,0.162-0.34,0.261-0.477c-0.254-0.095-0.502-0.183-0.743-0.267
			c-0.08,0.134-0.155,0.348-0.202,0.61C16.626,24.484,16.854,24.528,17.087,24.576"/>
		<path fill="#B7B9BC" d="M9.66,35.471c0.96,0.926,2.674,2.393,4.393,2.968c-4.272-2.851-4.875-6.024-4.875-6.024
			c-0.032,0.885,0.194,1.646,0.194,1.646c-1.682-2.519-1.777-7.212-1.777-7.212C6.961,32.338,9.119,34.919,9.66,35.471"/>
		<path fill="#B7B9BC" d="M14.703,31.579c-0.95-0.331-1.55,0.431-1.55,0.431s0.75-0.172,1.344,0.244
			c-1.561,1.353-0.937,3.328-0.557,4.146c0-0.305,0.062-0.998,0.553-1.705c0.02,0.445,0.092,0.953,0.273,1.465l0,0
			c0.176-1.345,0.436-2.117,0.759-2.474c0.187-0.206,0.394-0.273,0.619-0.23C16.029,33.013,15.652,31.917,14.703,31.579
			 M14.735,34.571c0,0-0.134-0.595,0.148-1.336c-0.505,0.386-0.788,0.86-0.875,1.608c0,0-0.403-1.371,1.039-2.189
			c0,0,0.119,0.135,0.429,0.505C15.15,33.413,14.765,33.992,14.735,34.571"/>
		<path fill="#B7B9BC" d="M22.644,37.698c0.221-0.221,0.238-0.404,0.238-0.404c-0.337,0.462-1.735,0.673-1.735,0.673
			c0.305-0.169,0.431-0.409,0.431-0.409c-2.429,0.282-3.144-0.401-3.144-0.401c0.305-0.084,0.399-0.367,0.399-0.367
			c-0.136-0.284-0.841-0.399-0.841-0.399c0.179-2.387-1.826-4.311-1.826-4.311c0.926,1.224,1.411,2.752,1.435,2.827
			c0.344,0.904,0.143,1.831,0.143,1.831c0.164-0.164,0.672,0.058,0.672,0.058c-0.021,0.021-0.042,0.041-0.064,0.061
			c-0.313,0.276-0.563,0.248-0.569,0.247c1.46,1.114,3.17,0.711,3.17,0.711c-0.029,0.028-0.059,0.057-0.09,0.082
			c-0.215,0.179-0.463,0.281-0.467,0.282C21.854,38.351,22.641,37.701,22.644,37.698"/>
		<path fill="#B7B9BC" d="M12.817,24.003c1.054-0.545,1.963-0.3,1.963-0.3c-1.578-0.707-2.553,0.129-2.706,0.273
			C12.31,23.98,12.558,23.989,12.817,24.003"/>
		<path fill="#B7B9BC" d="M9.344,26.812c0.601-1.582,1.454-2.141,2.071-2.328c-0.299,0.004-0.583,0.014-0.852,0.026
			c-0.84,0.575-1.284,1.534-1.517,2.427C9.137,26.896,9.236,26.855,9.344,26.812"/>
		<path fill="#B7B9BC" d="M8.946,27.379c-0.187,0.952-0.153,1.733-0.153,1.733c0.096-0.703,0.229-1.301,0.385-1.812
			C9.094,27.328,9.018,27.354,8.946,27.379"/>
		<path fill="#FFFFFF" d="M18.054,21.093c0-0.177,0.044-0.342,0.121-0.487c-0.498,0.211-0.765,0.546-0.765,0.546
			c0.341,0.439,0.717,0.665,1.064,0.772C18.219,21.736,18.054,21.433,18.054,21.093"/>
		<path fill="#C8D0E0" d="M17.41,21.15c0.076,0.097,0.153,0.186,0.231,0.262c0.039-0.045,0.183-0.203,0.422-0.357
			c0.007-0.159,0.049-0.311,0.121-0.445l0.006-0.013C17.683,20.809,17.41,21.15,17.41,21.15"/>
		<path fill="#002453" d="M19.603,20.523c0.138,0.715-0.466,1.089-0.466,1.089c0.232-0.548,0.046-0.94-0.153-1.175
			c-0.312,0.004-0.582,0.072-0.804,0.166c-0.078,0.146-0.123,0.312-0.123,0.489c0,0.342,0.166,0.644,0.421,0.833
			c0.666,0.205,1.227-0.025,1.227-0.025C20,21.739,20.044,20.747,19.603,20.523"/>
		<path fill="#346094" d="M19.892,20.944l0.007,0.139c0,0.38-0.291,0.688-0.65,0.688c-0.359,0-0.65-0.308-0.65-0.688
			c0-0.284,0.165-0.526,0.397-0.63c-0.004-0.005-0.008-0.01-0.012-0.014c-0.312,0.004-0.582,0.07-0.805,0.164
			c-0.078,0.146-0.123,0.312-0.123,0.489c0,0.342,0.166,0.644,0.421,0.833c0.666,0.205,1.227-0.025,1.227-0.025
			C19.902,21.794,19.987,21.316,19.892,20.944"/>
		<path fill="#889CBE" d="M19.603,20.524c0.004,0.02,0.006,0.039,0.009,0.057c0.141,0.13,0.229,0.312,0.229,0.519
			c0,0.389-0.314,0.703-0.704,0.703c-0.389,0-0.704-0.314-0.704-0.703c0-0.304,0.192-0.562,0.462-0.66
			c-0.12,0.006-0.233,0.021-0.339,0.045c-0.163,0.153-0.265,0.372-0.265,0.615c0,0.468,0.379,0.847,0.846,0.847
			c0.357,0,0.663-0.223,0.787-0.535C19.958,21.069,19.867,20.659,19.603,20.524"/>
		<path fill="#9CACC8" d="M18.894,21.123c-0.068,0.07-0.162,0.092-0.21,0.045c-0.048-0.045-0.032-0.141,0.036-0.212
			s0.162-0.092,0.209-0.045C18.978,20.956,18.962,21.052,18.894,21.123"/>
		<path fill="#889CBE" d="M19.071,20.802c-0.042,0.044-0.102,0.058-0.132,0.029c-0.03-0.029-0.02-0.09,0.022-0.134
			c0.043-0.044,0.102-0.057,0.132-0.028C19.124,20.697,19.114,20.757,19.071,20.802"/>
		<path fill="#FFFFFF" d="M18.528,20.93c0.072,0.03,0.18-0.002,0.26-0.088c0.096-0.101,0.12-0.234,0.051-0.3
			c-0.068-0.065-0.201-0.036-0.297,0.065c-0.085,0.09-0.113,0.204-0.07,0.275c-0.187,0.562,0.351,0.852,0.351,0.852
			C18.406,21.387,18.475,21.061,18.528,20.93"/>
		<path fill="#346094" d="M26.452,20.109c-0.002-0.005-0.002-0.012-0.004-0.017c0-0.003,0-0.004-0.002-0.007
			c-0.008-0.04-0.018-0.082-0.031-0.124c0,0-0.033-0.018-0.086-0.04c0.027,0.103,0.037,0.229,0.037,0.356
			c0,0.117-0.014,0.228-0.039,0.325c-0.053,0.238-0.18,0.407-0.328,0.407c-0.014,0-0.027-0.003-0.041-0.006
			c-0.041,0.05-0.069,0.075-0.069,0.075c0.01-0.031,0.018-0.061,0.027-0.088c-0.157-0.069-0.274-0.331-0.274-0.644
			c0-0.181,0.039-0.344,0.103-0.463c0.017-0.005,0.035-0.008,0.053-0.012c0.002-0.006,0.004-0.014,0.007-0.021
			c-0.091,0.019-0.182,0.06-0.259,0.138c-0.03,0.108-0.047,0.23-0.047,0.358c0,0.46,0.218,0.832,0.487,0.832
			c0.083,0,0.176-0.048,0.245-0.108c0.094-0.105,0.158-0.235,0.205-0.403c0.023-0.097,0.037-0.207,0.037-0.32
			C26.471,20.266,26.463,20.186,26.452,20.109"/>
		<path fill="#FFFFFF" d="M25.812,20.916c0,0-0.158-0.216-0.168-0.536c0.047-0.024,0.094-0.099,0.117-0.191
			c0.031-0.124,0.009-0.236-0.049-0.251s-0.131,0.075-0.161,0.199c-0.028,0.111-0.012,0.212,0.033,0.241
			C25.588,20.528,25.625,20.77,25.812,20.916"/>
		<path fill="#C8D0E0" d="M25.606,19.938c-0.018,0.014-0.035,0.027-0.05,0.043C25.572,19.966,25.589,19.952,25.606,19.938"/>
		<path fill="#C8D0E0" d="M25.507,20.513c-0.006-0.053-0.01-0.108-0.01-0.164c0-0.127,0.017-0.247,0.047-0.354
			c-0.077,0.079-0.136,0.2-0.16,0.379c-0.041,0.296,0.024,0.528,0.112,0.687C25.433,20.884,25.466,20.66,25.507,20.513"/>
		<path fill="#B7B9BC" d="M19.844,28.043c-0.007,0.005,0.017,0.005,0.025,0.005c0.974,0.046,1.777,0.628,2.727,0.628
			c1.456,0,2.753-1.453,2.753-1.453c-0.813,0.18-1.653,1.079-2.575,1.123C21.526,28.405,20.486,27.543,19.844,28.043"/>
		<path fill="#B7B9BC" d="M17.524,26.154c0.23,1.427,1.521,1.716,1.521,1.716s-1.23-0.582-0.668-1.329c0,0-1.124-0.332-0.334-1.299
			c0,0-0.641-1.174,1.907-1.908c-0.75,0.105-1.407,0.357-1.407,0.357S17.208,24.207,17.524,26.154"/>
		<path fill="#346094" d="M17.527,27.052c0,0-3.622,1.024-6.227,3.002c2.64-1.932,6.278-2.894,6.278-2.894L17.527,27.052z"/>
		<path fill="#346094" d="M17.16,25.95c0,0-5.142-0.203-8.463,1.331c2.97-1.372,8.478-1.212,8.478-1.212L17.16,25.95z"/>
		<path fill="#346094" d="M17.109,24.808c0,0-4.296-1.099-7.897-0.38c3.208-0.64,7.889,0.5,7.889,0.5L17.109,24.808z"/>
		<path fill="#346094" d="M17.693,23.861c0,0-1.576-0.692-5.522-1.396c3.221,0.574,5.497,1.514,5.497,1.514L17.693,23.861z"/>
		<path fill="#CD9700" d="M26.879,20.881c-0.15,0.375-0.365,0.571-0.512,0.668c0.09,0.105,0.303,0.285,0.525,0.537
			c-0.002-0.006-0.002-0.01-0.002-0.01C27.086,21.454,26.985,21.128,26.879,20.881"/>
		<path fill="#EDC982" d="M26.879,20.881c-0.018,0.046-0.035,0.087-0.057,0.127c0.082,0.288-0.008,0.607-0.205,0.787
			c0.096,0.093,0.156,0.155,0.275,0.292c-0.002-0.007-0.002-0.011-0.002-0.011C27.086,21.455,26.985,21.128,26.879,20.881"/>
		<path fill="#CD9700" d="M27.42,23.464c0.072-0.21,0.15-0.376,0.229-0.49c-0.096-0.059-0.182-0.124-0.256-0.192l0.002,0.002
			c-0.006-0.005-0.012-0.01-0.016-0.015c-0.012-0.011-0.023-0.022-0.035-0.031c-0.465-0.442-1.319-0.957-1.319-0.957
			c-0.233-0.093-0.414-0.2-0.556-0.312c-1.045-0.531-1.046-1.204-1.046-1.204c0.057,0.116,0.127,0.217,0.204,0.304
			c0.242,0.105,0.417-0.274,0.594-1.021c0.177-0.747,0.83-2.133,1.259-0.823c-0.303-0.284-0.549-0.152-0.779,0.396
			c0.093-0.049,0.194-0.076,0.301-0.076c0.228,0,0.437,0.123,0.593,0.324c-0.043-0.231-0.078-0.402-0.078-0.402
			c0-0.433,0.086-1.296-0.49-1.671c-0.372-0.241-1.07-0.907-1.456-1.286c-0.751-0.69-1.584-0.958-2.067-1.062
			c0.846,0.351,1.794,1.912,1.794,1.912c-0.809-1.042-1.752-1.841-2.203-1.974c0.261-0.124,0.89-0.22,0.89-0.22
			c-1.52-0.711-1.492-1.711-1.492-1.711c-0.425,0.425-0.542,0.959-0.542,0.959c0.457-3.094,3.154-4.51,3.154-4.51
			c1.463-0.516,2.467-1.285,2.467-1.285c-1,0.332-1.297,0.419-2.236,0.642c-1.413,0.871-3.197,2.062-4.332,4.844
			c-2.577-0.787-3.998-0.539-4.984-0.337c0,1.189-0.48,1.897-0.48,1.897c-0.345-1.389-0.972-2.596-0.972-2.596s-1.302-2.421-2.76-3
			c-0.144-0.057-0.303-0.124-0.467-0.193c2.166,1.71,2.406,4.678,2.406,4.678c-3.182,0.78-2.604,2.278-2.604,2.278l-0.376,0.619
			c-2.224,0.663-2.8,2.655-2.8,2.655c-0.39-1.609,0.062-3.262,0.062-3.262c-0.36-0.72-0.494-1.404-0.544-1.803
			c-0.84,1.023-1.352,2.453-1.92,3.53c-0.138,0.513-0.138,0.743-0.138,0.743c0.455,0.085,0.901-0.427,0.901-0.427
			c-0.076,0.607-0.446,0.721-0.446,0.721c-1.485,0.571-2.252,1.745-2.292,1.809c-0.939,1.725-1.735,4.223-0.886,6.291
			c0,0-0.058-0.98,0.375-1.412c0,0-0.381,2.443,2.06,5.536c-0.429-1.319-1.105-4.192,0.06-6.738
			c1.419-3.098,2.809-2.814,2.809-2.814c-0.447,0.893-0.866,2.796-0.866,3.563c0,0.336,0.029,0.648,0.073,0.937
			c0.448-1.654,1.173-2.742,1.836-3.324c1.576-1.38,2.99-1.248,3.03-1.262c0,0-0.335,0.395-0.441,0.669
			c1.787-0.981,3.505-0.949,4.906-0.603c1.487,0.369,2.626,1.09,3.078,1.407c0.495-0.161,1.627-0.428,2.55-0.292
			c0.493,0.072,0.909,0.198,1.261,0.349c-0.259-0.348-0.361-0.681-0.375-0.933c0,0,0.044,0.013,0.117,0.041
			c0.135,0.038,0.274,0.084,0.415,0.142c0.147-0.21,0.741-0.957,1.949-0.872c0,0-0.16,0.067-0.281,0.161
			c0.325-0.022,0.732,0.017,1.094,0.24c0,0-1.075-0.18-1.736,0.288c0,0,0.042-0.159,0.189-0.331
			c-0.35,0.104-0.652,0.385-0.846,0.688c0.475,0.26,0.913,0.649,1.125,1.201c0,0.004-0.029,0.033-0.069,0.069
			c-0.372-0.621-0.854-0.841-1.195-0.916c0.011,0.096,0.203,0.424,0.455,0.708c0.374,0.278,0.625,0.563,0.804,0.763
			c0.171-0.235,0.655-0.634,1.858-0.257c0.483,0.15,0.978-0.044,1.321-0.131c0-0.008,0.002-0.015,0.004-0.022
			c0.053-0.576-1.162-1.725-1.162-1.725C26.86,22.722,27.245,23.186,27.42,23.464 M11.325,21.095c0,0,0.092-0.325,0.488-0.555
			c0,0-1.241-0.194-3.015,1.236c0,0,1.509-2.515,3.761-1.454c0,0,1.095-0.276,1.79,0.763C14.349,21.085,13.053,20.372,11.325,21.095
			 M22.93,17.35c-1.286-1.654-2.783-2.924-3.499-3.136C20.88,13.973,22.93,17.35,22.93,17.35 M20.662,17.775
			c-1.752-2.253-2.797-2.986-3.773-3.276C18.864,14.168,20.662,17.775,20.662,17.775 M18.225,16.889
			c1.672,0.249,2.037,2.383,2.037,2.383c-1.039,0.135-1.768-1.096-1.768-1.096c0.447,0.271,0.818,0.242,0.818,0.242
			C19.177,17.804,18.225,16.889,18.225,16.889 M20.322,21.783c0,0,0.437,0.326,0.589,0.714c0,0-0.518-0.322-0.984-0.187
			c0,0-1.516,0.783-2.888-0.874c0,0-0.002-0.004-0.007-0.01c-0.358-0.1-1.192-0.291-2.267-0.258
			c0.019-0.016,0.038-0.028,0.056-0.042c-0.006,0-0.011,0.001-0.011,0.001c0.004-0.001,0.008-0.001,0.012-0.001
			c0.623-0.471,1.236-0.188,1.849-0.481c0.432-0.208,1.205-0.913,2.012-0.881c-0.219-0.231-1.127-0.721-2.356-0.222
			c0,0,1.627-1.744,3.57,0.407c0.06,0.06,0.117,0.123,0.168,0.192c0,0.002,0,0.002,0,0.002c0.029,0.04,0.058,0.081,0.084,0.125
			c0.364,0.61,0.461,0.879,0.577,0.994c0,0,0.449,0.596,1.167,0.966C21.892,22.229,21.591,22.359,20.322,21.783 M22.93,21.624
			c0,0,0.235-0.305,0.125-0.415c0,0-0.62,0.45-1.445,0.134c0,0,1.561-0.186,1.64-1.026c0,0,0.161,0.243,0.161,0.491
			c0,0,0.578-0.605,0.289-2.104C23.7,18.704,24.786,21.009,22.93,21.624 M25.13,17.718c0,0,0.014-0.265-0.157-0.569
			c0,0,0.517,0.396,0.592,1.338c0,0-0.87-0.334-1.169-1.852C24.395,16.635,24.875,17.596,25.13,17.718"/>
		<path fill="#F0CE8D" d="M24.277,8.796c0,0-2.972,1.402-4.306,4.816c0,0-2.629-0.961-4.957-0.335c0,0,0.02,1.21-0.477,1.886
			c-0.345-1.389-0.972-2.596-0.972-2.596s-1.302-2.421-2.76-3c-0.144-0.057-0.303-0.124-0.467-0.193l0.185,0.152
			c0.975,0.522,2.778,1.962,3.723,5.708l-0.439,0.363l0.906-0.218c0,0,0.748-0.837,0.732-1.814c0,0,2.078-0.464,4.54,0.375
			l0.172,0.045c0,0,0.94-3.408,4.024-4.902c0,0,1.617-0.484,2.236-0.896C26.135,8.289,25.109,8.649,24.277,8.796"/>
		<path fill="#EDC982" d="M24.068,23.836c0.969-0.755,2.047,0.316,2.956-0.114c0,0-0.166-0.513-0.926-1.385
			c0,0,0.531,0.772,0.703,1.307l0.053-0.087C26.403,23.933,24.649,22.803,24.068,23.836"/>
		<path fill="#F0CE8D" d="M22.311,17.508c0.245,0.665,0.189,1.116,0.189,1.116c-0.464-1.688-1.772-2.758-1.772-2.758
			c1.188,1.317,1.728,2.636,1.76,3.811C23.083,18.475,22.311,17.508,22.311,17.508"/>
		<path fill="#F0CE8D" d="M20.33,20.022c0,0,0.362,0.602,1.234,0.771c1.091,0.211,1.714-0.72,1.743-1.427
			c0,0,0.127,0.337,0.074,0.751c0,0,0.403-0.792-0.39-2.038c0,0,0.268,1.185,0.095,1.53c0,0,0.011-0.37-0.137-0.676
			c0,0,0.207,1.7-1.249,1.667C20.748,20.578,20.33,20.022,20.33,20.022"/>
		<path fill="#9E760D" d="M27.26,24.084c-0.324,0.092-0.838,0.281-1.325,0.131c-1.203-0.374-1.687,0.021-1.858,0.257
			c-0.232-0.259-0.588-0.664-1.178-1.011c-0.245-0.415-0.092-0.459-0.092-0.459c0.537-0.001,1.261,0.834,1.261,0.834
			c0.969-0.755,2.047,0.316,2.956-0.114c0,0-0.166-0.513-0.926-1.385C26.098,22.337,27.344,23.49,27.26,24.084"/>
		<path fill="#9E760D" d="M3.392,23.787c-1.153,1.152-1.316,2.008-1.316,2.008s-0.39,2.499,2.143,5.64
			C1.612,26.211,3.392,23.787,3.392,23.787"/>
		<path fill="#9E760D" d="M6.483,14.54L6.483,14.54c-0.263,0.061-0.811,1.114-1.511,2.339c-0.087,0.257-0.18,0.509-0.277,0.748l0,0
			c-0.271,0.827-0.271,1.187-0.271,1.187c0.455,0.085,0.901-0.427,0.901-0.427c-0.076,0.607-0.446,0.721-0.446,0.721
			c-1.512,0.583-2.279,1.788-2.293,1.81c-0.938,1.725-1.733,4.222-0.885,6.29c0,0-0.003-0.047-0.003-0.124
			c-0.089-3.662,1.481-6.266,3.039-7.062C6.312,19.214,5.89,17.33,5.89,17.33c-0.365,0.366-0.499,0.501-0.499,0.501
			c0.026-0.386,0.813-1.842,1.373-2.112l0,0C6.595,15.24,6.518,14.819,6.483,14.54"/>
		<path fill="#9E760D" d="M20.662,17.775c0,0-0.204-1.054-1.391-2.404c-1.188-1.351-2.382-0.872-2.382-0.872
			C18.864,14.168,20.662,17.775,20.662,17.775"/>
		<path fill="#9E760D" d="M22.93,17.35c0,0-0.668-1.504-1.751-2.494c-0.975-0.891-1.748-0.642-1.748-0.642
			C20.88,13.973,22.93,17.35,22.93,17.35"/>
		<path fill="#9E760D" d="M24.297,16.857c0,0-0.42-0.947-1.103-1.571c-0.613-0.561-1.1-0.402-1.1-0.402
			C23.008,14.731,24.297,16.857,24.297,16.857"/>
		<path fill="#9E760D" d="M12.128,18.716c0.004-0.002,0.009-0.005,0.014-0.008c-0.571,0.1-1.019,0.415-1.276,0.605
			c0.546-0.23,1.423-0.302,2.637,0.5c0,0-0.016-0.368-0.365-0.628c0,0,0.176-0.004,0.405,0.133
			C13.04,18.6,12.128,18.716,12.128,18.716"/>
		<path fill="#9E760D" d="M23.7,18.704c-0.22-0.872-0.603-1.295-0.603-1.295c0.231,0.411,0.339,1.161,0.339,1.161
			c-0.138-0.268-0.446-0.491-0.446-0.491c0.793,1.246,0.39,2.038,0.39,2.038c0.053-0.414-0.074-0.751-0.074-0.751
			c-0.028,0.707-0.651,1.638-1.742,1.427c-0.873-0.169-1.234-0.771-1.234-0.771s0.418,0.556,1.369,0.578
			c1.456,0.033,1.25-1.667,1.25-1.667s-0.147,1.255-0.879,1.318c-1.158,0.102-1.392-0.797-1.392-0.797L20.5,19.669l0.094,0.157
			c-0.106-0.125-0.189-0.248-0.25-0.348c-0.038-0.116-0.081-0.207-0.081-0.207c-1.039,0.135-1.768-1.096-1.768-1.096
			c0.271,0.165,0.515,0.219,0.664,0.235c-0.284-0.291-0.532-0.575-0.923-0.678c0,0,0.048,0.116,0.042,0.237
			c0,0-0.064-0.084-0.169-0.195c-0.293-0.855-1.16-1.022-1.16-1.022c0.182,0.191,0.147,0.371,0.147,0.371
			c-0.619-0.541-1.343-0.446-1.343-0.446s0.6,0.139,1.063,0.588c-0.174-0.037-0.384-0.054-0.619-0.024
			c-0.835-0.835-1.848-0.496-1.848-0.496s0.463,0.071,0.885,0.444c-0.095,0.015-0.193,0.036-0.293,0.068
			c-0.039-0.006-0.077-0.01-0.115-0.013c0,0,0.106,0.144,0.121,0.292c0,0-0.092-0.036-0.248-0.064
			c-1.083-1.019-2.303-0.459-2.303-0.459s0.811-0.133,1.487,0.471c-0.136,0.028-0.279,0.072-0.426,0.139
			c0,0-0.741-0.059-1.408,0.392c0.347-0.084,1.138-0.144,1.796,0.292c-0.822-0.194-1.439,0.253-1.439,0.253s0.113-0.018,0.288-0.007
			c0.753-0.018,1.668,0.511,1.668,0.511c-0.087-0.094-0.089-0.312-0.089-0.312c0.434,0.423,1.083,0.374,1.083,0.374
			c-0.254-0.071-0.342-0.274-0.342-0.274c0.857,0.188,1.334-0.044,1.591-0.292c-0.171,0.271-0.444,0.558-0.848,0.595
			c0,0-0.499,0.72-1.229,0.139c0,0,0.082,0.473,1.036,0.52c0,0-0.787,0.399-1.582-0.197c-0.026-0.002-0.067-0.008-0.112-0.015
			c0.032,0.037,0.064,0.078,0.096,0.122c0.018,0.066,0.032,0.13,0.044,0.189c-0.243,0-0.492,0.028-0.712,0.105
			c0,0-1.135-1.01-2.383-0.395c0,0,0.488-0.062,0.742,0.078c0,0-1.672-0.08-2.858,2.075c0,0,1.509-2.515,3.761-1.454
			c0,0,1.095-0.276,1.79,0.763c0,0-0.012-0.006-0.034-0.017c0.045,0.034,0.089,0.071,0.132,0.11c0.108-0.01,0.218-0.018,0.332-0.022
			c0-0.001,0.003-0.004,0.004-0.005c0.001-0.003,0.003-0.005,0.006-0.008c0.005-0.005,0.012-0.011,0.021-0.016
			c0,0,0.005-0.001,0.011-0.001c0.624-0.471,1.237-0.188,1.85-0.481c0.351-0.169,0.927-0.667,1.564-0.831
			c0.146-0.037,0.296-0.057,0.448-0.05c-0.219-0.231-1.127-0.721-2.356-0.222c0,0,1.627-1.744,3.57,0.407
			c0.06,0.06,0.117,0.123,0.168,0.192c0,0.002,0,0.002,0,0.002c0.029,0.04,0.058,0.081,0.084,0.125
			c0.364,0.61,0.461,0.879,0.577,0.994c0,0,0.292,0.388,0.783,0.732c0.121,0.083,0.251,0.163,0.39,0.235
			c0.02,0.006,0.088,0.026,0.174,0.063c0.019,0.007,0.053,0.019,0.101,0.036c0.134,0.038,0.274,0.084,0.415,0.142c0,0,0,0,0.001,0
			l0,0c-0.083-0.191,0.125-0.421,0.125-0.421c-0.195,0-0.247,0.035-0.247,0.035c0-0.195,0.329-0.271,0.329-0.271
			c-0.132-0.043-0.24-0.062-0.325-0.069c0.146-0.076,0.215-0.17,0.215-0.17c-0.737,0.116-1.074-0.233-1.074-0.233
			s1.561-0.186,1.64-1.026c0,0,0.161,0.243,0.161,0.491C23.412,20.808,23.989,20.202,23.7,18.704 M18.119,19.641h-0.002
			c0.009,0.004,0.015,0.005,0.015,0.005c-0.952,0.088-1.353,0.765-1.353,0.765c0.008-0.019,0.016-0.037,0.023-0.057
			c-0.023,0.032-0.035,0.052-0.035,0.052c0.118-0.313,0.225-0.496,0.311-0.603c-0.383,0.062-0.746,0.162-0.994,0.222
			c0.008-0.006,0.016-0.01,0.023-0.015c-0.011,0.003-0.025,0.007-0.035,0.009C17.215,19.277,18.119,19.641,18.119,19.641"/>
		<path fill="#F0CE8D" d="M24.161,17.416c0.296,0.645,0.273,1.099,0.273,1.099c-0.591-1.649-1.976-2.615-1.976-2.615
			c1.285,1.223,1.923,2.495,2.044,3.665C25.005,18.32,24.161,17.416,24.161,17.416"/>
		<path fill="#F5D9A8" d="M24.449,20.23L24.449,20.23c-0.004,0.014-0.232,0.793,1.284,1.531c0.682,0.332,1.516,1.079,1.785,1.475
			c0.053-0.118,0.078-0.187,0.131-0.263c-0.061-0.064-0.131-0.133-0.207-0.205c-0.438-0.415-1.078-0.909-1.516-1.103
			c-0.132-0.059-0.251-0.119-0.36-0.178c-0.123-0.067-0.232-0.134-0.331-0.2c-0.4-0.272-0.598-0.534-0.694-0.729
			c-0.089-0.18-0.093-0.302-0.093-0.325C24.449,20.232,24.449,20.23,24.449,20.23L24.449,20.23L24.449,20.23z"/>
		<polygon fill="#231F20" points="28.043,28.954 28.043,29.045 27.891,29.045 27.891,29.465 27.784,29.465 27.784,29.045 
			27.631,29.045 27.631,28.954 		"/>
		<path fill="#231F20" d="M28.444,28.954h0.154v0.511h-0.1v-0.346c0-0.01,0-0.022,0-0.041c0-0.018,0-0.032,0-0.041l-0.096,0.428
			h-0.104l-0.096-0.428c0,0.009,0,0.023,0,0.041c0,0.019,0,0.031,0,0.041v0.346h-0.1v-0.511h0.156l0.092,0.4L28.444,28.954z"/>
	</g>
</g>
</svg>
